<?xml version="1.0" encoding="UTF-8"?>
<svg xmlns="http://www.w3.org/2000/svg" width="404" height="118" viewBox="0 0 404 118" fill="none">
  <path d="M58.9786 91.2733C76.801 91.2733 91.2488 76.8254 91.2488 59.003C91.2488 41.1807 76.801 26.7328 58.9786 26.7328C41.1562 26.7328 26.7084 41.1807 26.7084 59.003C26.7084 76.8254 41.1562 91.2733 58.9786 91.2733Z" fill="#00162F"></path>
  <path d="M58.9785 28.7812C42.2872 28.7812 28.7567 42.3117 28.7567 59.003C28.7567 75.6943 42.2872 89.2249 58.9785 89.2249C75.6698 89.2249 89.2003 75.6943 89.2003 59.003C89.2003 42.3117 75.6698 28.7812 58.9785 28.7812ZM58.9785 85.9121C44.1168 85.9121 32.0694 73.8647 32.0694 59.003C32.0694 44.1413 44.1168 32.094 58.9785 32.094C73.8402 32.094 85.8876 44.1413 85.8876 59.003C85.8876 73.8647 73.8402 85.9121 58.9785 85.9121Z" fill="url(#paint0_linear_1_211)"></path>
  <path d="M53.9218 64.3095H45.175C44.3726 66.5828 43.7891 68.2604 43.4305 69.3302C43.0658 70.4061 42.774 71.3483 42.5491 72.1567L40.7864 71.9683L38.9811 72.1567L49.7216 46.0621L51.15 46.1776L52.5785 46.0621L63.0515 72.1567C62.6017 72.1567 61.9878 72.1263 61.2098 72.0655C60.4318 72.0047 59.9698 71.9743 59.8178 71.9743C59.368 71.9743 58.7541 72.0047 57.9761 72.0655C57.1981 72.1263 56.7361 72.1567 56.5841 72.1567C56.031 70.3818 55.6055 69.0385 55.3077 68.1389C54.8336 66.6861 54.3716 65.4097 53.9157 64.3095H53.9218ZM46.1961 62.0179H53.0587L49.7155 53.265L46.1961 62.0179Z" fill="white"></path>
  <path d="M66.9536 72.1567V46.3964C67.3791 46.3964 67.9322 46.4268 68.6069 46.4876C69.2816 46.5484 69.6707 46.5788 69.7679 46.5788C70.1934 46.5788 70.546 46.5666 70.8195 46.5423C71.8954 46.445 72.485 46.3903 72.5822 46.3903V72.1506C72.1567 72.1506 71.8042 72.1385 71.5306 72.1141C70.4548 72.0108 69.8652 71.9622 69.7679 71.9622C69.3424 71.9622 68.7893 71.9926 68.1146 72.0534C67.4399 72.1141 67.0509 72.1445 66.9536 72.1445V72.1567Z" fill="white"></path>
  <path d="M135.846 55.0886C132.947 53.5203 130.668 51.3443 129.014 48.5604C127.361 45.7764 126.534 42.6643 126.534 39.2239C126.534 35.7836 127.361 32.6714 129.014 29.8875C130.668 27.1036 132.947 24.9275 135.846 23.3593C138.746 21.7911 142.004 21.007 145.614 21.007C149.225 21.007 152.477 21.7911 155.382 23.3593C158.282 24.9275 160.561 27.0975 162.215 29.8632C163.868 32.6289 164.695 35.7532 164.695 39.2239C164.695 42.6947 163.868 45.819 162.215 48.5847C160.561 51.3503 158.282 53.5203 155.382 55.0886C152.483 56.6568 149.225 57.4409 145.614 57.4409C142.004 57.4409 138.746 56.6568 135.846 55.0886ZM151.991 50.0739C153.881 49.0102 155.364 47.527 156.446 45.6184C157.528 43.7098 158.063 41.5763 158.063 39.2179C158.063 36.8594 157.522 34.7198 156.446 32.8173C155.364 30.9087 153.881 29.4255 151.991 28.3618C150.1 27.2981 147.973 26.7693 145.614 26.7693C143.256 26.7693 141.129 27.2981 139.238 28.3618C137.348 29.4255 135.865 30.9087 134.783 32.8173C133.701 34.7259 133.166 36.8594 133.166 39.2179C133.166 41.5763 133.707 43.7159 134.783 45.6184C135.865 47.527 137.348 49.0102 139.238 50.0739C141.129 51.1376 143.256 51.6664 145.614 51.6664C147.973 51.6664 150.1 51.1376 151.991 50.0739Z" fill="#00162F"></path>
  <path d="M193.105 31.3281C195.177 32.4769 196.806 34.0938 197.986 36.1847C199.165 38.2757 199.755 40.6888 199.755 43.4241C199.755 46.1594 199.165 48.5786 197.986 50.6878C196.806 52.797 195.177 54.426 193.105 55.5688C191.032 56.7176 188.68 57.289 186.048 57.289C182.407 57.289 179.52 56.0733 177.392 53.6419V78.533H171.064V29.9057H177.088V33.4495C178.134 32.1669 179.422 31.2065 180.96 30.5622C182.498 29.924 184.188 29.6018 186.048 29.6018C188.68 29.6018 191.032 30.1732 193.105 31.322V31.3281ZM191.081 49.5451C192.582 47.9951 193.33 45.9527 193.33 43.4241C193.33 40.8955 192.576 38.8532 191.081 37.3032C189.579 35.7532 187.665 34.9751 185.337 34.9751C183.817 34.9751 182.449 35.3216 181.24 36.0145C180.024 36.7075 179.064 37.6922 178.352 38.9747C177.641 40.2573 177.289 41.7404 177.289 43.4302C177.289 45.12 177.641 46.6031 178.352 47.8857C179.064 49.1682 180.024 50.1529 181.24 50.8458C182.455 51.5388 183.823 51.8852 185.337 51.8852C187.665 51.8852 189.579 51.1072 191.081 49.5572V49.5451Z" fill="#00162F"></path>
  <path d="M222.026 55.4654C221.284 56.0733 220.378 56.5292 219.321 56.8331C218.257 57.137 217.139 57.289 215.953 57.289C212.987 57.289 210.689 56.5109 209.073 54.9609C207.456 53.4109 206.641 51.1498 206.641 48.1774V35.1696H202.186V30.1063H206.641V23.9307H212.969V30.1063H220.208V35.1696H212.969V48.0255C212.969 49.3384 213.291 50.3474 213.929 51.0343C214.567 51.7272 215.497 52.0737 216.713 52.0737C218.129 52.0737 219.309 51.7029 220.257 50.9613L222.026 55.4654Z" fill="#00162F"></path>
  <path d="M227.545 24.3683C226.767 23.645 226.384 22.7393 226.384 21.6634C226.384 20.5876 226.773 19.6819 227.545 18.9585C228.323 18.2352 229.284 17.8705 230.432 17.8705C231.581 17.8705 232.542 18.217 233.32 18.9099C234.098 19.6029 234.481 20.4721 234.481 21.5176C234.481 22.6299 234.104 23.566 233.344 24.3258C232.584 25.0856 231.618 25.4624 230.432 25.4624C229.247 25.4624 228.323 25.0977 227.545 24.3744V24.3683ZM227.241 29.9057H233.569V56.9303H227.241V29.9057Z" fill="#00162F"></path>
  <path d="M284.068 32.5681C286.062 34.5436 287.053 37.5037 287.053 41.4486V56.9364H280.725V42.2631C280.725 39.9047 280.202 38.1238 279.157 36.9263C278.111 35.7289 276.61 35.1271 274.653 35.1271C272.525 35.1271 270.823 35.8261 269.541 37.2241C268.258 38.6222 267.62 40.622 267.62 43.2235V56.9364H261.292V42.2631C261.292 39.9047 260.77 38.1238 259.724 36.9263C258.679 35.7289 257.177 35.1271 255.22 35.1271C253.062 35.1271 251.348 35.82 250.084 37.1998C248.819 38.5857 248.187 40.5916 248.187 43.2235V56.9364H241.86V29.9118H247.883V33.3522C248.898 32.1365 250.163 31.2126 251.676 30.5683C253.196 29.9301 254.88 29.6079 256.74 29.6079C258.764 29.6079 260.563 29.9848 262.131 30.7446C263.699 31.5044 264.939 32.6228 265.851 34.112C266.963 32.6957 268.398 31.5895 270.155 30.7993C271.905 30.0091 273.85 29.6079 275.972 29.6079C279.376 29.6079 282.074 30.5926 284.068 32.5681Z" fill="#00162F"></path>
  <path d="M316.259 51.8731V56.9364H292.931V52.9368L307.756 34.9691H293.234V29.9057H315.858V33.9053L300.978 51.8731H316.259Z" fill="#00162F"></path>
  <path d="M346.974 45.4421H325.772C326.143 47.4359 327.115 49.0102 328.684 50.1711C330.252 51.3321 332.203 51.9156 334.531 51.9156C337.497 51.9156 339.947 50.937 341.868 48.9798L345.259 52.876C344.044 54.3288 342.512 55.4229 340.652 56.1645C338.798 56.906 336.707 57.2768 334.379 57.2768C331.413 57.2768 328.793 56.6872 326.532 55.508C324.271 54.3288 322.526 52.6815 321.292 50.5723C320.058 48.4631 319.444 46.0743 319.444 43.412C319.444 40.7496 320.04 38.4094 321.238 36.3002C322.435 34.191 324.094 32.5498 326.222 31.3646C328.349 30.1853 330.744 29.5957 333.407 29.5957C336.069 29.5957 338.391 30.1793 340.47 31.3403C342.542 32.5073 344.165 34.1424 345.326 36.2516C346.487 38.3608 347.071 40.7982 347.071 43.5639C347.071 44.0016 347.034 44.6276 346.967 45.4361L346.974 45.4421ZM328.276 36.4643C326.878 37.6618 326.027 39.2543 325.717 41.248H341.053C340.786 39.2908 339.959 37.7043 338.573 36.4887C337.187 35.273 335.467 34.6651 333.413 34.6651C331.358 34.6651 329.674 35.2669 328.276 36.4643Z" fill="#00162F"></path>
  <path d="M352.238 56.0976C351.429 55.3074 351.022 54.2984 351.022 53.0888C351.022 51.8792 351.417 50.8276 352.213 50.0496C353.003 49.2715 353.994 48.8886 355.173 48.8886C356.353 48.8886 357.343 49.2776 358.134 50.0496C358.924 50.8276 359.325 51.8366 359.325 53.0888C359.325 54.3409 358.918 55.3074 358.109 56.0976C357.301 56.8939 356.322 57.289 355.173 57.289C354.025 57.289 353.046 56.8939 352.238 56.0976Z" fill="#00162F"></path>
  <path d="M385.462 32.4647C387.571 34.3734 388.623 37.2485 388.623 41.0961V56.9364H382.654V53.648C381.876 54.8272 380.775 55.7329 379.341 56.3529C377.906 56.979 376.18 57.289 374.156 57.289C372.132 57.289 370.363 56.9425 368.844 56.2495C367.324 55.5566 366.151 54.5962 365.324 53.3623C364.497 52.1284 364.084 50.7364 364.084 49.1864C364.084 46.7551 364.984 44.81 366.789 43.339C368.594 41.868 371.439 41.1386 375.317 41.1386H382.301V40.7314C382.301 38.841 381.736 37.3943 380.605 36.3792C379.475 35.3641 377.797 34.8596 375.572 34.8596C374.053 34.8596 372.563 35.0967 371.092 35.5708C369.622 36.0449 368.388 36.7014 367.373 37.5463L364.893 32.9389C366.309 31.8569 368.011 31.0302 370.004 30.4589C371.992 29.8875 374.101 29.6018 376.332 29.6018C380.313 29.6018 383.359 30.5561 385.468 32.4587L385.462 32.4647ZM379.693 51.5935C380.927 50.8701 381.79 49.8307 382.301 48.4813V45.3449H375.773C372.132 45.3449 370.308 46.5423 370.308 48.9372C370.308 50.086 370.764 50.9978 371.676 51.6725C372.588 52.3472 373.852 52.6815 375.469 52.6815C377.086 52.6815 378.466 52.3168 379.693 51.5935ZM397.023 24.3683C396.245 23.645 395.862 22.7393 395.862 21.6634C395.862 20.5876 396.251 19.6819 397.023 18.9585C397.801 18.2352 398.761 17.8705 399.91 17.8705C401.059 17.8705 402.019 18.217 402.791 18.9099C403.569 19.6029 403.952 20.4721 403.952 21.5176C403.952 22.6299 403.575 23.566 402.816 24.3258C402.056 25.0856 401.089 25.4624 399.904 25.4624C398.719 25.4624 397.795 25.0977 397.017 24.3744L397.023 24.3683ZM396.719 29.9057H403.047V56.9303H396.719V29.9057Z" fill="url(#paint1_linear_1_211)"></path>
  <path d="M132.169 89.2127C132.169 91.0545 131.123 92.2701 129.561 92.2701H128.096C128.066 92.2701 128.036 92.3005 128.036 92.3309V96.8594C128.036 96.9505 127.975 97.0174 127.878 97.0174H126.692C126.601 97.0174 126.534 96.9566 126.534 96.8594V86.2282C126.534 86.1371 126.595 86.0702 126.692 86.0702H129.488C131.093 86.0702 132.175 87.3345 132.175 89.2066L132.169 89.2127ZM130.674 89.2431C130.674 88.0882 130.096 87.3709 129.251 87.3709H128.096C128.066 87.3709 128.036 87.4014 128.036 87.4317V91.0059C128.036 91.0362 128.066 91.0666 128.096 91.0666H129.251C130.096 91.0666 130.674 90.3798 130.674 89.237V89.2431ZM137.196 89.0729H138.381C138.472 89.0729 138.539 89.1337 138.539 89.2309V96.8654C138.539 96.9566 138.478 97.0234 138.381 97.0234H137.196C137.105 97.0234 137.038 96.9627 137.038 96.8654V96.4156C137.038 96.3548 136.989 96.3548 136.959 96.3974C136.612 96.9444 136.083 97.1329 135.457 97.1329C134.284 97.1329 133.366 96.4642 133.366 94.8231V89.237C133.366 89.1458 133.427 89.079 133.524 89.079H134.71C134.801 89.079 134.868 89.1398 134.868 89.237V94.5009C134.868 95.4066 135.245 95.8442 135.932 95.8442C136.618 95.8442 137.038 95.2972 137.038 94.4097V89.2431C137.038 89.1519 137.099 89.0851 137.196 89.0851V89.0729ZM143.864 89.1641C143.943 89.2127 143.955 89.2857 143.943 89.3647L143.706 90.55C143.688 90.6594 143.627 90.6776 143.517 90.6411C143.329 90.5621 143.068 90.5317 142.8 90.5804C142.144 90.6594 141.676 91.3949 141.676 92.3006V96.8594C141.676 96.9505 141.615 97.0174 141.518 97.0174H140.332C140.241 97.0174 140.174 96.9566 140.174 96.8594V89.2249C140.174 89.1337 140.235 89.0668 140.332 89.0668H141.518C141.609 89.0668 141.676 89.1276 141.676 89.2249V90.1306C141.676 90.1913 141.724 90.2096 141.736 90.1488C142.004 89.4802 142.441 88.9939 143.189 88.9939C143.499 88.9939 143.706 89.0729 143.858 89.1641H143.864ZM150.252 91.4131V94.659C150.252 96.2029 149.438 97.1268 148.082 97.1268C147.596 97.1268 147.006 96.9566 146.581 96.4582C146.532 96.4095 146.502 96.4399 146.502 96.4885V99.8438C146.502 99.935 146.441 100.002 146.344 100.002H145.159C145.067 100.002 145 99.9411 145 99.8438V89.2309C145 89.1398 145.061 89.0729 145.159 89.0729H146.344C146.435 89.0729 146.502 89.1337 146.502 89.2309V89.5896C146.502 89.6382 146.55 89.6504 146.593 89.5896C147.012 89.1215 147.59 88.9513 148.076 88.9513C149.468 88.9513 150.246 89.936 150.246 91.4192L150.252 91.4131ZM147.626 90.24C146.958 90.24 146.52 90.7566 146.52 91.5043V94.5617C146.52 95.3093 146.958 95.8442 147.626 95.8442C148.295 95.8442 148.751 95.3154 148.751 94.5617V91.5043C148.751 90.7566 148.301 90.24 147.626 90.24ZM151.577 94.6772V91.4313C151.577 89.9665 152.592 88.9513 154.215 88.9513C155.838 88.9513 156.853 89.9665 156.853 91.4313V94.6772C156.853 96.1786 155.856 97.145 154.215 97.145C152.574 97.145 151.577 96.1786 151.577 94.6772ZM155.358 94.5678V91.5225C155.358 90.7749 154.89 90.24 154.221 90.24C153.553 90.24 153.085 90.7688 153.085 91.5225V94.5678C153.085 95.3154 153.553 95.8321 154.221 95.8321C154.89 95.8321 155.358 95.3154 155.358 94.5678ZM158.075 95.0054V94.8656C158.075 94.7744 158.136 94.7076 158.233 94.7076H159.339C159.431 94.7076 159.497 94.7562 159.497 94.8352V94.975C159.497 95.5342 159.984 95.9719 160.634 95.9719C161.285 95.9719 161.68 95.5342 161.68 94.975C161.68 94.2395 160.932 93.9782 160.166 93.6621C159.339 93.3035 158.136 92.8051 158.136 91.2429C158.136 89.8084 159.102 88.9939 160.586 88.9939C162.069 88.9939 163.065 89.8692 163.065 91.255V91.3037C163.065 91.3949 163.005 91.4617 162.907 91.4617H161.832C161.74 91.4617 161.674 91.4009 161.674 91.3219V91.1943C161.674 90.6351 161.236 90.1792 160.61 90.1792C159.941 90.1792 159.564 90.6655 159.564 91.1943C159.564 91.8811 160.251 92.1303 161.047 92.4768C161.923 92.8658 163.169 93.3947 163.169 94.9143C163.169 96.2576 162.184 97.1146 160.592 97.1146C158.999 97.1146 158.063 96.288 158.063 95.0054H158.075ZM169.332 93.6621H165.807C165.776 93.6621 165.746 93.6925 165.746 93.7229V94.5678C165.746 95.3154 166.214 95.8503 166.871 95.8503C167.466 95.8503 167.867 95.4431 167.977 94.896C168.007 94.8048 168.056 94.7745 168.147 94.7745L169.302 94.8352C169.393 94.8352 169.46 94.896 169.442 94.9933C169.302 96.3184 168.408 97.145 166.864 97.145C165.321 97.145 164.245 96.1786 164.245 94.6772V91.4313C164.245 89.9665 165.26 88.9513 166.864 88.9513C168.469 88.9513 169.484 89.9665 169.484 91.4313V93.5102C169.484 93.6013 169.424 93.6682 169.326 93.6682L169.332 93.6621ZM165.74 91.5225V92.3492C165.74 92.3795 165.77 92.41 165.801 92.41H167.94C167.971 92.41 168.001 92.3795 168.001 92.3492V91.5225C168.001 90.7749 167.551 90.24 166.864 90.24C166.178 90.24 165.74 90.7688 165.74 91.5225ZM170.536 92.7382V91.7535C170.536 91.6623 170.597 91.5954 170.694 91.5954H174.475C174.566 91.5954 174.633 91.6562 174.633 91.7535V92.7382C174.633 92.8294 174.572 92.8962 174.475 92.8962H170.694C170.603 92.8962 170.536 92.8354 170.536 92.7382ZM176.049 96.8594V86.2465C176.049 86.1553 176.11 86.0884 176.207 86.0884H178.766C180.486 86.0884 181.592 87.2251 181.592 89.0365V94.0633C181.592 95.8746 180.486 97.0113 178.766 97.0113H176.207C176.116 97.0113 176.049 96.9505 176.049 96.8533V96.8594ZM177.605 95.7227L178.742 95.7044C179.538 95.7044 180.055 95.048 180.067 93.9842V89.1155C180.067 88.0518 179.55 87.3831 178.742 87.3831H177.605C177.575 87.3831 177.544 87.4135 177.544 87.4439V95.6558C177.544 95.6862 177.575 95.7166 177.605 95.7166V95.7227ZM186.899 89.1641C186.978 89.2127 186.99 89.2857 186.978 89.3647L186.741 90.55C186.723 90.6594 186.662 90.6776 186.552 90.6411C186.364 90.5621 186.103 90.5317 185.835 90.5804C185.179 90.6594 184.711 91.3949 184.711 92.3006V96.8594C184.711 96.9505 184.65 97.0174 184.553 97.0174H183.367C183.276 97.0174 183.209 96.9566 183.209 96.8594V89.2249C183.209 89.1337 183.27 89.0668 183.367 89.0668H184.553C184.644 89.0668 184.711 89.1276 184.711 89.2249V90.1306C184.711 90.1913 184.759 90.2096 184.771 90.1488C185.039 89.4802 185.477 88.9939 186.224 88.9939C186.534 88.9939 186.741 89.0729 186.893 89.1641H186.899ZM187.853 86.9029C187.853 86.3255 188.242 85.9182 188.808 85.9182C189.373 85.9182 189.744 86.3255 189.744 86.9029C189.744 87.4804 189.367 87.8998 188.808 87.8998C188.248 87.8998 187.853 87.4925 187.853 86.9029ZM188.054 96.8594V89.2249C188.054 89.1337 188.115 89.0668 188.212 89.0668H189.397C189.488 89.0668 189.555 89.1276 189.555 89.2249V96.8594C189.555 96.9505 189.494 97.0174 189.397 97.0174H188.212C188.121 97.0174 188.054 96.9566 188.054 96.8594ZM192.704 96.8776L190.783 89.2431C190.753 89.1337 190.801 89.0729 190.911 89.0729H192.236C192.327 89.0729 192.394 89.1215 192.406 89.2127L193.53 94.7684C193.549 94.8292 193.579 94.8292 193.591 94.7684L194.697 89.2127C194.716 89.1215 194.777 89.0729 194.868 89.0729L196.193 89.0911C196.302 89.0911 196.351 89.1702 196.32 89.2614L194.418 96.8776C194.4 96.9687 194.339 97.0174 194.248 97.0174H192.874C192.783 97.0174 192.716 96.9687 192.704 96.8776ZM202.277 93.6621H198.752C198.721 93.6621 198.691 93.6925 198.691 93.7229V94.5678C198.691 95.3154 199.159 95.8503 199.816 95.8503C200.411 95.8503 200.812 95.4431 200.922 94.896C200.952 94.8048 201.001 94.7745 201.092 94.7745L202.247 94.8352C202.338 94.8352 202.405 94.896 202.387 94.9933C202.247 96.3184 201.353 97.145 199.809 97.145C198.266 97.145 197.19 96.1786 197.19 94.6772V91.4313C197.19 89.9665 198.205 88.9513 199.809 88.9513C201.414 88.9513 202.429 89.9665 202.429 91.4313V93.5102C202.429 93.6013 202.368 93.6682 202.271 93.6682L202.277 93.6621ZM198.685 91.5225V92.3492C198.685 92.3795 198.715 92.41 198.746 92.41H200.885C200.916 92.41 200.946 92.3795 200.946 92.3492V91.5225C200.946 90.7749 200.496 90.24 199.809 90.24C199.123 90.24 198.685 90.7688 198.685 91.5225ZM209.036 91.5043V96.8594C209.036 96.9505 208.976 97.0174 208.878 97.0174H207.693C207.602 97.0174 207.535 96.9566 207.535 96.8594V91.6319C207.535 90.7566 207.146 90.2582 206.471 90.2582C205.754 90.2582 205.335 90.787 205.335 91.6927V96.8594C205.335 96.9505 205.274 97.0174 205.177 97.0174H203.991C203.9 97.0174 203.833 96.9566 203.833 96.8594V89.2249C203.833 89.1337 203.894 89.0668 203.991 89.0668H205.177C205.268 89.0668 205.335 89.1276 205.335 89.2249V89.6321C205.335 89.6808 205.383 89.6929 205.426 89.6503C205.845 89.1337 206.441 88.9635 207 88.9635C208.313 88.9635 209.03 89.8996 209.03 91.5103L209.036 91.5043ZM218.251 96.8776L217.905 95.0844C217.905 95.054 217.856 95.0237 217.826 95.0237H215.315C215.285 95.0237 215.236 95.054 215.236 95.0844L214.878 96.8776C214.86 96.9687 214.799 97.0174 214.708 97.0174H213.522C213.413 97.0174 213.364 96.9384 213.382 96.8472L215.711 86.2343C215.729 86.1431 215.79 86.0945 215.881 86.0945H217.254C217.346 86.0945 217.412 86.1431 217.425 86.2343L219.783 96.8472C219.801 96.9384 219.753 97.0174 219.643 97.0174H218.428C218.336 97.0174 218.27 96.9687 218.257 96.8776H218.251ZM215.546 93.8323H217.607C217.637 93.8323 217.656 93.8019 217.656 93.7715L216.622 88.4347C216.604 88.3739 216.574 88.3739 216.562 88.4347L215.498 93.7715C215.498 93.8019 215.516 93.8323 215.546 93.8323ZM221.218 96.8594V86.2465C221.218 86.1553 221.278 86.0884 221.376 86.0884H222.561C222.652 86.0884 222.719 86.1492 222.719 86.2465V96.8594C222.719 96.9505 222.658 97.0174 222.561 97.0174H221.376C221.284 97.0174 221.218 96.9566 221.218 96.8594ZM227.509 94.349V93.9296C227.509 93.8384 227.569 93.7715 227.667 93.7715H228.822C228.913 93.7715 228.98 93.8323 228.98 93.9296V94.276C228.98 95.2425 229.508 95.8503 230.262 95.8503C231.016 95.8503 231.557 95.2547 231.557 94.349C231.557 93.3947 230.931 92.957 229.806 92.1303C228.603 91.2429 227.478 90.4102 227.478 88.7143C227.478 87.0184 228.603 85.9668 230.177 85.9668C231.849 85.9668 232.937 87.1217 232.937 88.8541V89.2431C232.937 89.3343 232.876 89.4011 232.779 89.4011H231.624C231.533 89.4011 231.466 89.3404 231.466 89.2431V88.8237C231.466 87.8876 230.937 87.2615 230.171 87.2615C229.466 87.2615 228.955 87.7782 228.955 88.7143C228.955 89.6504 229.411 90.0272 230.609 90.9147C232.201 92.0999 233.028 92.7564 233.028 94.2578C233.028 96.0205 231.873 97.145 230.25 97.145C228.627 97.145 227.503 96.0205 227.503 94.349H227.509ZM234.256 94.6772V91.4313C234.256 89.9665 235.271 88.9513 236.894 88.9513C238.517 88.9513 239.532 89.9665 239.532 91.4313V94.6772C239.532 96.1786 238.535 97.145 236.894 97.145C235.253 97.145 234.256 96.1786 234.256 94.6772ZM238.03 94.5678V91.5225C238.03 90.7749 237.562 90.24 236.888 90.24C236.213 90.24 235.745 90.7688 235.745 91.5225V94.5678C235.745 95.3154 236.213 95.8321 236.888 95.8321C237.562 95.8321 238.03 95.3154 238.03 94.5678ZM240.954 96.8594V86.2465C240.954 86.1553 241.015 86.0884 241.112 86.0884H242.297C242.389 86.0884 242.455 86.1492 242.455 86.2465V96.8594C242.455 96.9505 242.395 97.0174 242.297 97.0174H241.112C241.021 97.0174 240.954 96.9566 240.954 96.8594ZM247.762 89.0729H248.947C249.038 89.0729 249.105 89.1337 249.105 89.2309V96.8654C249.105 96.9566 249.044 97.0234 248.947 97.0234H247.762C247.671 97.0234 247.604 96.9627 247.604 96.8654V96.4156C247.604 96.3548 247.555 96.3548 247.525 96.3974C247.178 96.9444 246.65 97.1329 246.023 97.1329C244.85 97.1329 243.933 96.4642 243.933 94.8231V89.237C243.933 89.1458 243.993 89.079 244.091 89.079H245.276C245.367 89.079 245.434 89.1398 245.434 89.237V94.5009C245.434 95.4066 245.811 95.8442 246.498 95.8442C247.184 95.8442 247.604 95.2972 247.604 94.4097V89.2431C247.604 89.1519 247.665 89.0851 247.762 89.0851V89.0729ZM253.694 90.167H252.6C252.57 90.167 252.54 90.1974 252.54 90.2278V94.6164C252.54 95.4917 252.85 95.7227 253.445 95.7105H253.585C253.676 95.7105 253.743 95.7713 253.743 95.8686V96.8654C253.743 96.9566 253.682 97.0234 253.585 97.0234H253.099C251.895 97.0234 251.087 96.7135 251.087 95.1513V90.2339C251.087 90.2035 251.056 90.1731 251.026 90.1731H250.418C250.327 90.1731 250.26 90.1123 250.26 90.0151V89.237C250.26 89.1458 250.321 89.079 250.418 89.079H251.026C251.056 89.079 251.087 89.0486 251.087 89.0182V87.2555C251.087 87.1643 251.148 87.0974 251.245 87.0974H252.388C252.479 87.0974 252.546 87.1582 252.546 87.2555V89.0182C252.546 89.0486 252.576 89.079 252.606 89.079H253.701C253.792 89.079 253.859 89.1398 253.859 89.237V90.0151C253.859 90.1062 253.798 90.1731 253.701 90.1731L253.694 90.167ZM254.928 86.9029C254.928 86.3255 255.317 85.9182 255.883 85.9182C256.448 85.9182 256.819 86.3255 256.819 86.9029C256.819 87.4804 256.442 87.8998 255.883 87.8998C255.323 87.8998 254.928 87.4925 254.928 86.9029ZM255.129 96.8594V89.2249C255.129 89.1337 255.19 89.0668 255.287 89.0668H256.472C256.563 89.0668 256.63 89.1276 256.63 89.2249V96.8594C256.63 96.9505 256.57 97.0174 256.472 97.0174H255.287C255.196 97.0174 255.129 96.9566 255.129 96.8594ZM258.192 94.6772V91.4313C258.192 89.9665 259.208 88.9513 260.831 88.9513C262.453 88.9513 263.469 89.9665 263.469 91.4313V94.6772C263.469 96.1786 262.472 97.145 260.831 97.145C259.189 97.145 258.192 96.1786 258.192 94.6772ZM261.967 94.5678V91.5225C261.967 90.7749 261.499 90.24 260.824 90.24C260.15 90.24 259.682 90.7688 259.682 91.5225V94.5678C259.682 95.3154 260.15 95.8321 260.824 95.8321C261.499 95.8321 261.967 95.3154 261.967 94.5678ZM270.149 91.5043V96.8594C270.149 96.9505 270.088 97.0174 269.991 97.0174H268.805C268.714 97.0174 268.647 96.9566 268.647 96.8594V91.6319C268.647 90.7566 268.258 90.2582 267.584 90.2582C266.866 90.2582 266.441 90.787 266.441 91.6927V96.8594C266.441 96.9505 266.38 97.0174 266.283 97.0174H265.098C265.006 97.0174 264.94 96.9566 264.94 96.8594V89.2249C264.94 89.1337 265 89.0668 265.098 89.0668H266.283C266.374 89.0668 266.441 89.1276 266.441 89.2249V89.6321C266.441 89.6808 266.49 89.6929 266.532 89.6503C266.951 89.1337 267.547 88.9635 268.106 88.9635C269.419 88.9635 270.137 89.8996 270.137 91.5103L270.149 91.5043ZM271.431 95.0054V94.8656C271.431 94.7744 271.492 94.7076 271.589 94.7076H272.696C272.787 94.7076 272.854 94.7562 272.854 94.8352V94.975C272.854 95.5342 273.34 95.9719 273.996 95.9719C274.653 95.9719 275.042 95.5342 275.042 94.975C275.042 94.2395 274.294 93.9782 273.528 93.6621C272.702 93.3035 271.498 92.8051 271.498 91.2429C271.498 89.8084 272.465 88.9939 273.948 88.9939C275.431 88.9939 276.428 89.8692 276.428 91.255V91.3037C276.428 91.3949 276.367 91.4617 276.27 91.4617H275.194C275.103 91.4617 275.036 91.4009 275.036 91.3219V91.1943C275.036 90.6351 274.598 90.1792 273.972 90.1792C273.303 90.1792 272.927 90.6655 272.927 91.1943C272.927 91.8811 273.613 92.1303 274.41 92.4768C275.285 92.8658 276.531 93.3947 276.531 94.9143C276.531 96.2576 275.546 97.1146 273.954 97.1146C272.361 97.1146 271.425 96.288 271.425 95.0054H271.431ZM282.719 89.006C282.719 89.0364 282.749 89.0668 282.78 89.0668H283.874C283.965 89.0668 284.032 89.1276 284.032 89.2249V90.0029C284.032 90.0941 283.971 90.1609 283.874 90.1609H282.78C282.749 90.1609 282.719 90.1913 282.719 90.2217V96.8533C282.719 96.9444 282.658 97.0113 282.561 97.0113H281.388C281.296 97.0113 281.23 96.9505 281.23 96.8533V90.2217C281.23 90.1913 281.199 90.1609 281.169 90.1609H280.591C280.5 90.1609 280.433 90.1002 280.433 90.0029V89.2249C280.433 89.1337 280.494 89.0668 280.591 89.0668H281.169C281.199 89.0668 281.23 89.0364 281.23 89.006V88.5988C281.23 86.7266 281.965 86.0094 283.679 86.0094H283.88C283.971 86.0094 284.038 86.0702 284.038 86.1674L284.007 87.1217C284.007 87.2312 283.947 87.2798 283.849 87.2798H283.691C283.005 87.2798 282.707 87.7174 282.707 88.6535V89.0121L282.719 89.006ZM285.156 94.6772V91.4313C285.156 89.9665 286.171 88.9513 287.794 88.9513C289.417 88.9513 290.432 89.9665 290.432 91.4313V94.6772C290.432 96.1786 289.435 97.145 287.794 97.145C286.153 97.145 285.156 96.1786 285.156 94.6772ZM288.937 94.5678V91.5225C288.937 90.7749 288.469 90.24 287.794 90.24C287.12 90.24 286.652 90.7688 286.652 91.5225V94.5678C286.652 95.3154 287.12 95.8321 287.794 95.8321C288.469 95.8321 288.937 95.3154 288.937 94.5678ZM295.599 89.1641C295.678 89.2127 295.69 89.2857 295.678 89.3647L295.447 90.55C295.429 90.6594 295.368 90.6776 295.259 90.6411C295.07 90.5621 294.803 90.5317 294.541 90.5804C293.885 90.6594 293.417 91.3949 293.417 92.3006V96.8594C293.417 96.9505 293.356 97.0174 293.259 97.0174H292.073C291.982 97.0174 291.915 96.9566 291.915 96.8594V89.2249C291.915 89.1337 291.976 89.0668 292.073 89.0668H293.259C293.35 89.0668 293.417 89.1276 293.417 89.2249V90.1306C293.417 90.1913 293.465 90.2096 293.478 90.1488C293.745 89.4802 294.183 88.9939 294.93 88.9939C295.24 88.9939 295.447 89.0729 295.599 89.1641ZM302.705 97.0174H300.097C300.006 97.0174 299.939 96.9566 299.939 96.8594V86.2465C299.939 86.1553 300 86.0884 300.097 86.0884H302.486C304.346 86.0884 305.513 87.0731 305.513 88.9939C305.513 90.1184 305.106 90.8964 304.309 91.3219C304.261 91.3523 304.261 91.3827 304.291 91.4009C305.087 91.8872 305.604 92.7443 305.616 94.0086C305.634 95.978 304.413 97.0234 302.699 97.0234L302.705 97.0174ZM301.44 87.45V90.7566C301.44 90.787 301.471 90.8174 301.501 90.8174H302.498C303.483 90.8174 304.042 90.1913 304.042 89.1337C304.042 88.0761 303.477 87.3831 302.498 87.3831H301.501C301.471 87.3831 301.44 87.4135 301.44 87.4439V87.45ZM304.127 93.8505C304.127 92.647 303.549 91.9297 302.595 91.9297H301.501C301.471 91.9297 301.44 91.9602 301.44 91.9905V95.6437C301.44 95.6741 301.471 95.7044 301.501 95.7044H302.577C303.531 95.7044 304.121 95.0358 304.121 93.8445L304.127 93.8505ZM310.667 89.0729H311.853C311.944 89.0729 312.011 89.1337 312.011 89.2309V96.8654C312.011 96.9566 311.95 97.0234 311.853 97.0234H310.667C310.576 97.0234 310.509 96.9627 310.509 96.8654V96.4156C310.509 96.3548 310.461 96.3548 310.43 96.3974C310.084 96.9444 309.555 97.1329 308.929 97.1329C307.756 97.1329 306.838 96.4642 306.838 94.8231V89.237C306.838 89.1458 306.899 89.079 306.996 89.079H308.181C308.272 89.079 308.339 89.1398 308.339 89.237V94.5009C308.339 95.4066 308.716 95.8442 309.403 95.8442C310.09 95.8442 310.509 95.2972 310.509 94.4097V89.2431C310.509 89.1519 310.57 89.0851 310.667 89.0851V89.0729ZM313.384 95.0054V94.8656C313.384 94.7744 313.445 94.7076 313.542 94.7076H314.649C314.74 94.7076 314.807 94.7562 314.807 94.8352V94.975C314.807 95.5342 315.293 95.9719 315.949 95.9719C316.606 95.9719 316.995 95.5342 316.995 94.975C316.995 94.2395 316.247 93.9782 315.481 93.6621C314.655 93.3035 313.451 92.8051 313.451 91.2429C313.451 89.8084 314.418 88.9939 315.901 88.9939C317.384 88.9939 318.381 89.8692 318.381 91.255V91.3037C318.381 91.3949 318.32 91.4617 318.223 91.4617H317.147C317.056 91.4617 316.989 91.4009 316.989 91.3219V91.1943C316.989 90.6351 316.551 90.1792 315.925 90.1792C315.256 90.1792 314.88 90.6655 314.88 91.1943C314.88 91.8811 315.567 92.1303 316.363 92.4768C317.238 92.8658 318.484 93.3947 318.484 94.9143C318.484 96.2576 317.499 97.1146 315.907 97.1146C314.314 97.1146 313.378 96.288 313.378 95.0054H313.384ZM319.584 86.9029C319.584 86.3255 319.973 85.9182 320.539 85.9182C321.104 85.9182 321.475 86.3255 321.475 86.9029C321.475 87.4804 321.098 87.8998 320.539 87.8998C319.979 87.8998 319.584 87.4925 319.584 86.9029ZM319.785 96.8594V89.2249C319.785 89.1337 319.846 89.0668 319.943 89.0668H321.128C321.219 89.0668 321.286 89.1276 321.286 89.2249V96.8594C321.286 96.9505 321.226 97.0174 321.128 97.0174H319.943C319.852 97.0174 319.785 96.9566 319.785 96.8594ZM328.185 91.5043V96.8594C328.185 96.9505 328.124 97.0174 328.027 97.0174H326.842C326.751 97.0174 326.684 96.9566 326.684 96.8594V91.6319C326.684 90.7566 326.295 90.2582 325.62 90.2582C324.903 90.2582 324.477 90.787 324.477 91.6927V96.8594C324.477 96.9505 324.417 97.0174 324.319 97.0174H323.134C323.043 97.0174 322.976 96.9566 322.976 96.8594V89.2249C322.976 89.1337 323.037 89.0668 323.134 89.0668H324.319C324.411 89.0668 324.477 89.1276 324.477 89.2249V89.6321C324.477 89.6808 324.526 89.6929 324.569 89.6503C324.988 89.1337 325.584 88.9635 326.143 88.9635C327.456 88.9635 328.173 89.8996 328.173 91.5103L328.185 91.5043ZM334.683 93.6621H331.158C331.127 93.6621 331.097 93.6925 331.097 93.7229V94.5678C331.097 95.3154 331.565 95.8503 332.221 95.8503C332.817 95.8503 333.218 95.4431 333.328 94.896C333.358 94.8048 333.407 94.7745 333.498 94.7745L334.653 94.8352C334.744 94.8352 334.811 94.896 334.793 94.9933C334.653 96.3184 333.759 97.145 332.215 97.145C330.671 97.145 329.595 96.1786 329.595 94.6772V91.4313C329.595 89.9665 330.611 88.9513 332.215 88.9513C333.82 88.9513 334.835 89.9665 334.835 91.4313V93.5102C334.835 93.6013 334.774 93.6682 334.677 93.6682L334.683 93.6621ZM331.091 91.5225V92.3492C331.091 92.3795 331.121 92.41 331.152 92.41H333.291C333.322 92.41 333.352 92.3795 333.352 92.3492V91.5225C333.352 90.7749 332.896 90.24 332.209 90.24C331.522 90.24 331.085 90.7688 331.085 91.5225H331.091ZM335.978 95.0054V94.8656C335.978 94.7744 336.039 94.7076 336.136 94.7076H337.242C337.333 94.7076 337.4 94.7562 337.4 94.8352V94.975C337.4 95.5342 337.886 95.9719 338.543 95.9719C339.199 95.9719 339.588 95.5342 339.588 94.975C339.588 94.2395 338.841 93.9782 338.075 93.6621C337.248 93.3035 336.045 92.8051 336.045 91.2429C336.045 89.8084 337.011 88.9939 338.494 88.9939C339.977 88.9939 340.974 89.8692 340.974 91.255V91.3037C340.974 91.3949 340.913 91.4617 340.816 91.4617H339.74C339.649 91.4617 339.582 91.4009 339.582 91.3219V91.1943C339.582 90.6351 339.145 90.1792 338.519 90.1792C337.85 90.1792 337.473 90.6655 337.473 91.1943C337.473 91.8811 338.16 92.1303 338.956 92.4768C339.831 92.8658 341.078 93.3947 341.078 94.9143C341.078 96.2576 340.093 97.1146 338.5 97.1146C336.908 97.1146 335.972 96.288 335.972 95.0054H335.978ZM341.728 95.0054V94.8656C341.728 94.7744 341.789 94.7076 341.886 94.7076H342.992C343.083 94.7076 343.15 94.7562 343.15 94.8352V94.975C343.15 95.5342 343.637 95.9719 344.293 95.9719C344.95 95.9719 345.339 95.5342 345.339 94.975C345.339 94.2395 344.591 93.9782 343.825 93.6621C342.998 93.3035 341.795 92.8051 341.795 91.2429C341.795 89.8084 342.761 88.9939 344.244 88.9939C345.728 88.9939 346.724 89.8692 346.724 91.255V91.3037C346.724 91.3949 346.664 91.4617 346.566 91.4617H345.49C345.399 91.4617 345.332 91.4009 345.332 91.3219V91.1943C345.332 90.6351 344.895 90.1792 344.269 90.1792C343.6 90.1792 343.223 90.6655 343.223 91.1943C343.223 91.8811 343.91 92.1303 344.706 92.4768C345.582 92.8658 346.828 93.3947 346.828 94.9143C346.828 96.2576 345.843 97.1146 344.25 97.1146C342.658 97.1146 341.722 96.288 341.722 95.0054H341.728ZM356.383 87.3831H352.87C352.839 87.3831 352.809 87.4135 352.809 87.4439V90.8296C352.809 90.8599 352.839 90.8904 352.87 90.8904H355.021C355.113 90.8904 355.179 90.9512 355.179 91.0484V92.0331C355.179 92.1243 355.119 92.1911 355.021 92.1911H352.87C352.839 92.1911 352.809 92.2215 352.809 92.2519V95.6558C352.809 95.6862 352.839 95.7166 352.87 95.7166H356.383C356.474 95.7166 356.541 95.7774 356.541 95.8747V96.8594C356.541 96.9505 356.48 97.0174 356.383 97.0174H351.466C351.374 97.0174 351.308 96.9566 351.308 96.8594V86.2465C351.308 86.1553 351.368 86.0884 351.466 86.0884H356.383C356.474 86.0884 356.541 86.1492 356.541 86.2465V87.2312C356.541 87.3223 356.48 87.3892 356.383 87.3892V87.3831ZM363.896 89.006C363.896 89.0364 363.926 89.0668 363.957 89.0668H365.033C365.124 89.0668 365.191 89.1276 365.191 89.2249V90.0029C365.191 90.0941 365.13 90.1609 365.033 90.1609H363.957C363.926 90.1609 363.896 90.1913 363.896 90.2217V96.8533C363.896 96.9444 363.835 97.0113 363.738 97.0113H362.553C362.461 97.0113 362.395 96.9505 362.395 96.8533V90.2217C362.395 90.1913 362.364 90.1609 362.334 90.1609H359.836C359.805 90.1609 359.775 90.1913 359.775 90.2217V96.8533C359.775 96.9444 359.714 97.0113 359.617 97.0113H358.431C358.34 97.0113 358.273 96.9505 358.273 96.8533V90.2217C358.273 90.1913 358.243 90.1609 358.213 90.1609H357.617C357.526 90.1609 357.459 90.1002 357.459 90.0029V89.2249C357.459 89.1337 357.52 89.0668 357.617 89.0668H358.213C358.243 89.0668 358.273 89.0364 358.273 89.006V88.38C358.273 86.6294 359.039 85.9425 360.741 85.9912H360.851C360.942 85.9912 361.009 86.052 361.009 86.1492V86.8968C361.009 86.988 360.96 87.0549 360.887 87.0549H360.747C359.981 87.0731 359.781 87.6323 359.781 88.5076V89.006C359.781 89.0364 359.811 89.0668 359.842 89.0668H362.34C362.37 89.0668 362.401 89.0364 362.401 89.006V88.38C362.401 86.6294 363.166 85.9425 364.85 85.9912H364.972C365.063 85.9912 365.13 86.052 365.13 86.1492V86.8968C365.13 86.988 365.081 87.0549 365.002 87.0549H364.862C364.096 87.0731 363.896 87.6323 363.896 88.5076V89.006ZM366.333 86.8847C366.333 86.3072 366.741 85.9 367.3 85.9C367.859 85.9 368.236 86.3072 368.236 86.8847C368.236 87.4621 367.847 87.8815 367.3 87.8815C366.753 87.8815 366.333 87.4743 366.333 86.8847ZM366.552 96.8594V89.2249C366.552 89.1337 366.613 89.0668 366.71 89.0668H367.895C367.987 89.0668 368.053 89.1276 368.053 89.2249V96.8594C368.053 96.9505 367.993 97.0174 367.895 97.0174H366.71C366.619 97.0174 366.552 96.9566 366.552 96.8594ZM369.597 94.659V91.4253C369.597 89.9604 370.613 88.9453 372.217 88.9453C373.822 88.9453 374.855 89.9603 374.855 91.255V91.4556C374.855 91.5468 374.794 91.6137 374.697 91.6137L373.512 91.6623C373.421 91.6623 373.354 91.6015 373.354 91.5043V91.3462C373.354 90.7688 372.886 90.24 372.211 90.24C371.536 90.24 371.087 90.7688 371.087 91.5225V94.5678C371.087 95.3154 371.543 95.8503 372.211 95.8503C372.88 95.8503 373.354 95.3215 373.354 94.744V94.586C373.354 94.4949 373.415 94.428 373.512 94.428L374.697 94.4462C374.788 94.4462 374.855 94.507 374.855 94.6043V94.8413C374.855 96.1846 373.84 97.1511 372.217 97.1511C370.594 97.1511 369.597 96.1846 369.597 94.6711V94.659ZM376.077 86.9029C376.077 86.3255 376.466 85.9182 377.031 85.9182C377.597 85.9182 377.967 86.3255 377.967 86.9029C377.967 87.4804 377.591 87.8998 377.031 87.8998C376.472 87.8998 376.077 87.4925 376.077 86.9029ZM376.278 96.8594V89.2249C376.278 89.1337 376.338 89.0668 376.436 89.0668H377.621C377.712 89.0668 377.779 89.1276 377.779 89.2249V96.8594C377.779 96.9505 377.718 97.0174 377.621 97.0174H376.436C376.344 97.0174 376.278 96.9566 376.278 96.8594ZM384.429 93.6621H380.903C380.873 93.6621 380.842 93.6925 380.842 93.7229V94.5678C380.842 95.3154 381.311 95.8503 381.967 95.8503C382.563 95.8503 382.964 95.4431 383.073 94.896C383.104 94.8048 383.152 94.7745 383.243 94.7745L384.398 94.8352C384.49 94.8352 384.556 94.896 384.538 94.9933C384.398 96.3184 383.505 97.145 381.961 97.145C380.417 97.145 379.341 96.1786 379.341 94.6772V91.4313C379.341 89.9665 380.356 88.9513 381.961 88.9513C383.566 88.9513 384.581 89.9665 384.581 91.4313V93.5102C384.581 93.6013 384.52 93.6682 384.423 93.6682L384.429 93.6621ZM380.836 91.5225V92.3492C380.836 92.3795 380.867 92.41 380.897 92.41H383.037C383.067 92.41 383.098 92.3795 383.098 92.3492V91.5225C383.098 90.7749 382.642 90.24 381.955 90.24C381.268 90.24 380.83 90.7688 380.83 91.5225H380.836ZM391.188 91.5043V96.8594C391.188 96.9505 391.127 97.0174 391.03 97.0174H389.845C389.753 97.0174 389.687 96.9566 389.687 96.8594V91.6319C389.687 90.7566 389.298 90.2582 388.623 90.2582C387.906 90.2582 387.48 90.787 387.48 91.6927V96.8594C387.48 96.9505 387.419 97.0174 387.322 97.0174H386.137C386.046 97.0174 385.979 96.9566 385.979 96.8594V89.2249C385.979 89.1337 386.039 89.0668 386.137 89.0668H387.322C387.413 89.0668 387.48 89.1276 387.48 89.2249V89.6321C387.48 89.6808 387.529 89.6929 387.571 89.6503C387.991 89.1337 388.586 88.9635 389.146 88.9635C390.458 88.9635 391.176 89.8996 391.176 91.5103L391.188 91.5043ZM392.598 94.659V91.4253C392.598 89.9604 393.613 88.9453 395.218 88.9453C396.823 88.9453 397.856 89.9603 397.856 91.255V91.4556C397.856 91.5468 397.795 91.6137 397.698 91.6137L396.513 91.6623C396.421 91.6623 396.355 91.6015 396.355 91.5043V91.3462C396.355 90.7688 395.886 90.24 395.212 90.24C394.537 90.24 394.087 90.7688 394.087 91.5225V94.5678C394.087 95.3154 394.543 95.8503 395.212 95.8503C395.88 95.8503 396.355 95.3215 396.355 94.744V94.586C396.355 94.4949 396.415 94.428 396.513 94.428L397.698 94.4462C397.789 94.4462 397.856 94.507 397.856 94.6043V94.8413C397.856 96.1846 396.841 97.1511 395.218 97.1511C393.595 97.1511 392.598 96.1846 392.598 94.6711V94.659ZM398.731 99.9836V99.0294C398.731 98.9382 398.762 98.8713 398.81 98.8713H398.889C399.825 98.8713 400.202 98.5613 400.451 97.0599C400.451 97.0295 400.433 97.0113 400.433 96.9809L398.433 89.237C398.403 89.1276 398.464 89.0668 398.573 89.0668H399.856C399.947 89.0668 400.014 89.1155 400.026 89.2066L401.169 94.8413C401.187 94.9021 401.217 94.9021 401.229 94.8413L402.354 89.2066C402.372 89.1155 402.433 89.0668 402.524 89.0668L403.819 89.0851C403.928 89.0851 403.977 89.1641 403.946 89.2553L401.807 97.5583C401.26 99.5885 400.81 100.136 398.901 100.136H398.822C398.774 100.136 398.731 100.075 398.731 99.9776V99.9836Z" fill="url(#paint2_linear_1_211)"></path>
  <path d="M192.424 75.6518V69.5126C192.424 67.5614 193.706 66.2728 195.627 66.2728C197.548 66.2728 198.867 67.5553 198.867 69.5126V75.6518C198.867 77.6029 197.566 78.8733 195.627 78.8733C193.688 78.8733 192.424 77.609 192.424 75.6518ZM197.171 75.7186V69.4214C197.171 68.4185 196.557 67.7316 195.621 67.7316C194.685 67.7316 194.108 68.4185 194.108 69.4214V75.7186C194.108 76.7215 194.703 77.4084 195.621 77.4084C196.539 77.4084 197.171 76.7215 197.171 75.7186Z" fill="#00162F"></path>
  <path d="M210.653 69.932C210.653 72.0108 209.474 73.3785 207.717 73.3785H206.064C206.028 73.3785 205.991 73.415 205.991 73.4514V78.5512C205.991 78.6546 205.918 78.7275 205.815 78.7275H204.478C204.374 78.7275 204.301 78.6546 204.301 78.5512V66.5707C204.301 66.4673 204.374 66.3944 204.478 66.3944H207.626C209.438 66.3944 210.653 67.8168 210.653 69.932ZM208.963 69.9685C208.963 68.6677 208.313 67.8593 207.365 67.8593H206.064C206.028 67.8593 205.991 67.8958 205.991 67.9322V71.9622C205.991 71.9987 206.028 72.0352 206.064 72.0352H207.365C208.313 72.0352 208.963 71.2632 208.963 69.9746V69.9685Z" fill="#00162F"></path>
  <path d="M221.88 66.5889V67.6952C221.88 67.7985 221.807 67.8714 221.704 67.8714H219.4C219.364 67.8714 219.327 67.9079 219.327 67.9444V78.5512C219.327 78.6545 219.254 78.7275 219.151 78.7275H217.814C217.71 78.7275 217.637 78.6545 217.637 78.5512V67.9444C217.637 67.9079 217.601 67.8714 217.564 67.8714H215.382C215.279 67.8714 215.206 67.7985 215.206 67.6952V66.5889C215.206 66.4856 215.279 66.4126 215.382 66.4126H221.698C221.801 66.4126 221.874 66.4856 221.874 66.5889H221.88Z" fill="#00162F"></path>
  <path d="M227.016 78.5512V66.5889C227.016 66.4856 227.089 66.4126 227.192 66.4126H228.53C228.633 66.4126 228.706 66.4856 228.706 66.5889V78.5512C228.706 78.6545 228.633 78.7275 228.53 78.7275H227.192C227.089 78.7275 227.016 78.6545 227.016 78.5512Z" fill="#00162F"></path>
  <path d="M234.389 78.5512V66.5889C234.389 66.4856 234.462 66.4126 234.566 66.4126H235.903C235.988 66.4126 236.061 66.4491 236.097 66.5524L237.891 70.8256C237.909 70.8803 237.976 70.8803 237.994 70.8256L239.823 66.5524C239.86 66.4491 239.927 66.4126 240.018 66.4126H241.355C241.459 66.4126 241.532 66.4856 241.532 66.5889V78.5512C241.532 78.6545 241.465 78.7275 241.355 78.7275H240.018C239.915 78.7275 239.842 78.6545 239.842 78.5512V70.5824C239.842 70.5156 239.787 70.5156 239.757 70.5642L238.122 74.0471C238.085 74.1322 238.036 74.1687 237.982 74.1687C237.909 74.1687 237.842 74.1322 237.805 74.0471L236.17 70.546C236.134 70.4912 236.085 70.4912 236.085 70.5642V78.5512C236.085 78.6545 236.012 78.7275 235.909 78.7275H234.572C234.468 78.7275 234.395 78.6545 234.395 78.5512H234.389Z" fill="#00162F"></path>
  <path d="M247.215 78.5512V66.5889C247.215 66.4856 247.288 66.4126 247.391 66.4126H248.728C248.832 66.4126 248.905 66.4856 248.905 66.5889V78.5512C248.905 78.6545 248.832 78.7275 248.728 78.7275H247.391C247.288 78.7275 247.215 78.6545 247.215 78.5512Z" fill="#00162F"></path>
  <path d="M254.028 78.5512V77.372C254.028 77.3051 254.047 77.2504 254.083 77.1592L258.168 67.9565C258.186 67.9201 258.168 67.8714 258.113 67.8714H254.205C254.101 67.8714 254.028 67.7985 254.028 67.6952V66.5889C254.028 66.4856 254.101 66.4126 254.205 66.4126H259.815C259.918 66.4126 259.991 66.4856 259.991 66.5889V67.7681C259.991 67.8411 259.973 67.8897 259.937 67.9809L255.84 77.1836C255.822 77.22 255.84 77.2687 255.895 77.2687H259.815C259.918 77.2687 259.991 77.3355 259.991 77.4449V78.5512C259.991 78.6545 259.918 78.7275 259.815 78.7275H254.205C254.101 78.7275 254.028 78.6545 254.028 78.5512Z" fill="#00162F"></path>
  <path d="M270.902 67.8775H266.945C266.909 67.8775 266.872 67.914 266.872 67.9505V71.7677C266.872 71.8042 266.909 71.8406 266.945 71.8406H269.37C269.474 71.8406 269.547 71.9136 269.547 72.0169V73.1232C269.547 73.2265 269.474 73.2995 269.37 73.2995H266.945C266.909 73.2995 266.872 73.3359 266.872 73.3724V77.2079C266.872 77.2444 266.909 77.2808 266.945 77.2808H270.902C271.006 77.2808 271.078 77.3477 271.078 77.4571V78.5634C271.078 78.6667 271.006 78.7397 270.902 78.7397H265.359C265.255 78.7397 265.182 78.6667 265.182 78.5634V66.6011C265.182 66.4977 265.255 66.4248 265.359 66.4248H270.902C271.006 66.4248 271.078 66.4977 271.078 66.6011V67.7073C271.078 67.8107 271.006 67.8836 270.902 67.8836V67.8775Z" fill="#00162F"></path>
  <path d="M291.417 78.7275H289.976C289.891 78.7275 289.818 78.691 289.745 78.6242C289.533 78.3263 289.338 78.0406 289.15 77.761C289.113 77.7245 289.077 77.7245 289.046 77.761C288.183 78.533 287.253 78.8855 286.129 78.8855C284.244 78.8855 283.017 77.8643 283.017 75.9132C283.017 74.1687 284.001 73.1353 285.077 72.2904C285.114 72.2722 285.114 72.2357 285.095 72.2053C283.88 70.4791 283.703 70.005 283.703 69.1418C283.703 67.3973 284.828 66.2728 286.481 66.2728C288.135 66.2728 289.369 67.4156 289.369 69.1601C289.369 70.7405 288.347 71.7312 287.278 72.5883C287.241 72.6065 287.241 72.643 287.259 72.6734C287.521 73.0077 287.788 73.3967 288.104 73.8526L289.125 75.2445C289.162 75.2992 289.198 75.281 289.229 75.2445C289.508 74.8069 289.794 74.3328 290.055 73.8404C290.11 73.7371 290.213 73.7189 290.305 73.7675L291.289 74.3328C291.374 74.3875 291.411 74.4726 291.362 74.5759C290.955 75.3357 290.536 75.9861 290.147 76.5271C290.128 76.5636 290.128 76.6 290.147 76.6122C290.566 77.1957 291.046 77.8279 291.538 78.5147C291.624 78.6363 291.575 78.7275 291.435 78.7275H291.417ZM288.147 76.5332C288.183 76.4967 288.183 76.4602 288.165 76.4298L286.068 73.5973C286.05 73.5608 286.013 73.5608 285.983 73.5973C285.26 74.2295 284.7 74.8981 284.7 75.8159C284.7 76.7338 285.284 77.4692 286.372 77.4328C286.986 77.3963 287.588 77.0802 288.147 76.5332ZM285.381 69.1965C285.381 69.7436 285.466 70.0597 286.262 71.2571C286.299 71.3118 286.335 71.3118 286.366 71.2753C287.101 70.6614 287.667 70.0232 287.667 69.1661C287.667 68.3577 287.192 67.8107 286.524 67.8107C285.855 67.8107 285.381 68.3577 285.381 69.2026V69.1965Z" fill="#00162F"></path>
  <path d="M310.053 66.5889V67.6952C310.053 67.7985 309.98 67.8714 309.877 67.8714H307.573C307.537 67.8714 307.5 67.9079 307.5 67.9444V78.5512C307.5 78.6545 307.427 78.7275 307.324 78.7275H305.987C305.883 78.7275 305.81 78.6545 305.81 78.5512V67.9444C305.81 67.9079 305.774 67.8714 305.737 67.8714H303.555C303.452 67.8714 303.379 67.7985 303.379 67.6952V66.5889C303.379 66.4856 303.452 66.4126 303.555 66.4126H309.871C309.974 66.4126 310.047 66.4856 310.047 66.5889H310.053Z" fill="#00162F"></path>
  <path d="M319.87 78.5877L318.235 73.3116C318.217 73.2569 318.198 73.2569 318.162 73.2569H316.946C316.91 73.2569 316.873 73.2934 316.873 73.3299V78.5573C316.873 78.6606 316.8 78.7336 316.697 78.7336H315.36C315.256 78.7336 315.183 78.6606 315.183 78.5573V66.5768C315.183 66.4734 315.256 66.4005 315.36 66.4005H318.508C320.32 66.4005 321.535 67.8228 321.535 69.9016C321.535 71.3969 320.867 72.5397 319.809 72.9956C319.773 73.032 319.754 73.0502 319.773 73.0989L321.584 78.533C321.621 78.6545 321.566 78.7275 321.444 78.7275H320.07C319.985 78.7275 319.894 78.6728 319.858 78.5877H319.87ZM316.879 67.9262V71.865C316.879 71.9014 316.916 71.9379 316.952 71.9379H318.253C319.201 71.9379 319.852 71.1477 319.852 69.9138C319.852 68.6799 319.201 67.8532 318.253 67.8532H316.952C316.916 67.8532 316.879 67.8897 316.879 67.9262Z" fill="#00162F"></path>
  <path d="M331.802 78.5694L331.413 76.5453C331.413 76.5089 331.358 76.4724 331.328 76.4724H328.495C328.459 76.4724 328.41 76.5089 328.41 76.5453L328.003 78.5694C327.985 78.6728 327.918 78.7275 327.808 78.7275H326.471C326.349 78.7275 326.295 78.6424 326.313 78.533L328.933 66.5707C328.951 66.4673 329.018 66.4126 329.127 66.4126H330.677C330.781 66.4126 330.854 66.4673 330.872 66.5707L333.528 78.533C333.546 78.6363 333.492 78.7275 333.37 78.7275H331.996C331.893 78.7275 331.82 78.6728 331.802 78.5694ZM328.757 75.1412H331.078C331.115 75.1412 331.133 75.1047 331.133 75.0744L329.972 69.0567C329.954 68.9838 329.918 68.9838 329.899 69.0567L328.702 75.0744C328.702 75.1108 328.72 75.1412 328.757 75.1412Z" fill="#00162F"></path>
  <path d="M338.683 78.5512V66.5889C338.683 66.4856 338.756 66.4126 338.859 66.4126H340.214C340.299 66.4126 340.372 66.4491 340.409 66.5524L343.539 74.3085C343.558 74.3814 343.624 74.3632 343.624 74.2903V66.5828C343.624 66.4795 343.697 66.4066 343.801 66.4066H345.12C345.223 66.4066 345.296 66.4795 345.296 66.5828V78.5451C345.296 78.6485 345.223 78.7214 345.12 78.7214H343.746C343.661 78.7214 343.588 78.6849 343.551 78.5816L340.421 70.8256C340.403 70.7526 340.336 70.7526 340.336 70.8256L340.354 78.5512C340.354 78.6546 340.281 78.7275 340.178 78.7275H338.859C338.756 78.7275 338.683 78.6546 338.683 78.5512Z" fill="#00162F"></path>
  <path d="M350.7 75.7187V75.2445C350.7 75.1412 350.766 75.0683 350.876 75.0683H352.177C352.28 75.0683 352.353 75.1351 352.353 75.2445V75.6336C352.353 76.7277 352.949 77.4084 353.793 77.4084C354.638 77.4084 355.252 76.7398 355.252 75.7187C355.252 74.6428 354.547 74.1504 353.283 73.2204C351.927 72.2175 350.663 71.2875 350.663 69.3667C350.663 67.446 351.927 66.2667 353.708 66.2667C355.593 66.2667 356.821 67.5675 356.821 69.5248V69.9624C356.821 70.0657 356.748 70.1387 356.644 70.1387H355.343C355.24 70.1387 355.167 70.0657 355.167 69.9624V69.4883C355.167 68.4307 354.572 67.7316 353.708 67.7316C352.918 67.7316 352.335 68.3152 352.335 69.3667C352.335 70.4183 352.845 70.8438 354.201 71.8467C355.994 73.184 356.93 73.9255 356.93 75.6092C356.93 77.5969 355.629 78.8612 353.8 78.8612C351.97 78.8612 350.706 77.5969 350.706 75.7126L350.7 75.7187Z" fill="#00162F"></path>
  <path d="M367.749 67.8775H363.811C363.774 67.8775 363.738 67.914 363.738 67.9505V71.7677C363.738 71.8042 363.774 71.8406 363.811 71.8406H366.224C366.327 71.8406 366.4 71.9136 366.4 72.0169V73.1232C366.4 73.2265 366.327 73.2995 366.224 73.2995H363.811C363.774 73.2995 363.738 73.3359 363.738 73.3724V78.5634C363.738 78.6667 363.665 78.7397 363.561 78.7397H362.224C362.121 78.7397 362.048 78.6667 362.048 78.5634V66.6011C362.048 66.4977 362.121 66.4248 362.224 66.4248H367.749C367.853 66.4248 367.926 66.4977 367.926 66.6011V67.7073C367.926 67.8107 367.853 67.8836 367.749 67.8836V67.8775Z" fill="#00162F"></path>
  <path d="M372.533 75.6518V69.5126C372.533 67.5614 373.816 66.2728 375.737 66.2728C377.657 66.2728 378.976 67.5554 378.976 69.5126V75.6518C378.976 77.603 377.676 78.8733 375.737 78.8733C373.798 78.8733 372.533 77.609 372.533 75.6518ZM377.287 75.7187V69.4214C377.287 68.4185 376.673 67.7316 375.737 67.7316C374.8 67.7316 374.223 68.4185 374.223 69.4214V75.7187C374.223 76.7216 374.819 77.4085 375.737 77.4085C376.654 77.4085 377.287 76.7216 377.287 75.7187Z" fill="#00162F"></path>
  <path d="M389.109 78.5877L387.474 73.3116C387.455 73.2569 387.437 73.2569 387.401 73.2569H386.185C386.149 73.2569 386.112 73.2934 386.112 73.3299V78.5573C386.112 78.6606 386.039 78.7336 385.936 78.7336H384.599C384.495 78.7336 384.422 78.6606 384.422 78.5573V66.5768C384.422 66.4734 384.495 66.4005 384.599 66.4005H387.747C389.559 66.4005 390.774 67.8228 390.774 69.9016C390.774 71.3969 390.106 72.5397 389.048 72.9956C389.012 73.032 388.993 73.0502 389.012 73.0989L390.823 78.533C390.859 78.6545 390.805 78.7275 390.683 78.7275H389.309C389.224 78.7275 389.133 78.6728 389.097 78.5877H389.109ZM386.118 67.9262V71.865C386.118 71.9014 386.155 71.9379 386.191 71.9379H387.492C388.44 71.9379 389.091 71.1477 389.091 69.9138C389.091 68.6799 388.44 67.8532 387.492 67.8532H386.191C386.155 67.8532 386.118 67.8897 386.118 67.9262Z" fill="#00162F"></path>
  <path d="M395.905 78.5512V66.5889C395.905 66.4856 395.978 66.4126 396.081 66.4126H397.418C397.503 66.4126 397.576 66.4491 397.613 66.5524L399.406 70.8256C399.424 70.8803 399.491 70.8803 399.509 70.8256L401.339 66.5524C401.375 66.4491 401.442 66.4126 401.533 66.4126H402.87C402.974 66.4126 403.047 66.4856 403.047 66.5889V78.5512C403.047 78.6545 402.98 78.7275 402.87 78.7275H401.533C401.43 78.7275 401.357 78.6545 401.357 78.5512V70.5824C401.357 70.5156 401.302 70.5156 401.272 70.5642L399.637 74.0471C399.6 74.1322 399.552 74.1687 399.497 74.1687C399.424 74.1687 399.357 74.1322 399.321 74.0471L397.686 70.546C397.649 70.4912 397.6 70.4912 397.6 70.5642V78.5512C397.6 78.6545 397.527 78.7275 397.424 78.7275H396.087C395.984 78.7275 395.911 78.6545 395.911 78.5512H395.905Z" fill="#00162F"></path>
  <path d="M58.9787 96.7499C38.1662 96.7499 21.2318 79.8155 21.2318 59.003C21.2318 38.1906 38.1662 21.2562 58.9787 21.2562C79.7911 21.2562 96.7256 38.1906 96.7256 59.003C96.7256 79.8155 79.7911 96.7499 58.9787 96.7499ZM58.9787 23.1344C39.1996 23.1344 23.11 39.2239 23.11 58.9969C23.11 78.77 39.1996 94.8656 58.9787 94.8656C78.7578 94.8656 94.8473 78.7761 94.8473 58.9969C94.8473 39.2178 78.7578 23.1344 58.9787 23.1344Z" fill="#00162F"></path>
  <path d="M114.967 67.7985C114.177 67.7985 113.459 68.1085 112.918 68.6069L106.767 64.8018H92.4282C92.7017 63.2336 92.8597 61.6289 92.9084 59.9938H105.46C105.874 61.1669 106.992 62.0118 108.305 62.0118C109.97 62.0118 111.32 60.6564 111.32 58.997C111.32 57.3376 109.964 55.9821 108.305 55.9821C106.992 55.9821 105.874 56.827 105.46 58.0001H92.9084C92.8597 56.365 92.7017 54.7603 92.4282 53.1921H106.767L112.918 49.387C113.459 49.8854 114.177 50.1954 114.967 50.1954C116.632 50.1954 117.982 48.84 117.982 47.1806C117.982 45.5211 116.626 44.1657 114.967 44.1657C113.307 44.1657 111.952 45.5211 111.952 47.1806C111.952 47.3325 111.964 47.4784 111.988 47.6243L106.208 51.2045H92.027C91.176 47.6 89.7537 44.2143 87.8572 41.1508L97.8866 31.1214L104.506 29.5653C104.591 29.6808 104.688 29.7963 104.792 29.8996C105.363 30.471 106.117 30.781 106.925 30.781C107.734 30.781 108.487 30.4649 109.059 29.8996C109.63 29.3283 109.94 28.5746 109.94 27.7661C109.94 26.9577 109.624 26.204 109.059 25.6326C107.886 24.4595 105.971 24.4595 104.792 25.6326C104.251 26.1736 103.941 26.8908 103.916 27.6506L96.8836 29.3101L86.7327 39.461C85.8027 38.142 84.7816 36.8898 83.6753 35.7228L92.5619 26.8361C92.9631 27.0306 93.4068 27.134 93.8688 27.134C94.6772 27.134 95.4309 26.8179 96.0023 26.2526C96.5736 25.6812 96.8836 24.9275 96.8836 24.1191C96.8836 23.3107 96.5676 22.5569 96.0023 21.9856C94.8291 20.8124 92.9145 20.8124 91.7352 21.9856C91.1639 22.5569 90.8539 23.3107 90.8539 24.1191C90.8539 24.5811 90.9572 25.0248 91.1517 25.4259L82.2651 34.3126C81.092 33.2063 79.8459 32.1851 78.5269 31.2551L88.6778 21.1042L90.3372 14.0593C91.0727 14.0289 91.796 13.7493 92.3552 13.1901C92.9266 12.6188 93.2366 11.865 93.2366 11.0566C93.2366 10.2482 92.9205 9.49446 92.3552 8.92309C91.7839 8.35172 91.0301 8.04171 90.2217 8.04171C89.4133 8.04171 88.6596 8.3578 88.0882 8.92309C87.5168 9.49446 87.2068 10.2482 87.2068 11.0566C87.2068 11.865 87.5229 12.6188 88.0882 13.1901C88.1915 13.2935 88.3131 13.3785 88.4286 13.4697L86.8664 20.0952L76.8371 30.1246C73.7736 28.222 70.3879 26.7997 66.7834 25.9548V11.7739L70.3636 5.9933C70.5095 6.01153 70.6553 6.02976 70.8073 6.02976C72.4728 6.02976 73.8222 4.67429 73.8222 3.01488C73.8222 1.35548 72.4667 0 70.8073 0C69.1479 0 67.7924 1.35548 67.7924 3.01488C67.7924 3.80507 68.1024 4.52232 68.6008 5.0633L64.7958 11.2086V25.5475C63.2275 25.274 61.6228 25.116 59.9877 25.0673V12.5154C61.1609 12.1021 62.0058 10.9837 62.0058 9.67072C62.0058 8.00524 60.6503 6.65584 58.9909 6.65584C57.3315 6.65584 55.976 8.01132 55.976 9.67072C55.976 10.9837 56.8209 12.1021 57.994 12.5154V25.0673C56.3589 25.116 54.7542 25.2801 53.186 25.5475V11.2086L49.3809 5.0633C49.8794 4.52232 50.1894 3.80507 50.1894 3.01488C50.1894 1.3494 48.8339 0 47.1745 0C45.5151 0 44.1596 1.35548 44.1596 3.01488C44.1596 4.67429 45.5151 6.02976 47.1745 6.02976C47.3264 6.02976 47.4723 6.01761 47.6182 5.9933L51.1984 11.7739V25.9548C47.5939 26.8057 44.2082 28.2281 41.1447 30.1246L31.1153 20.0952L29.5532 13.4697C29.6687 13.3846 29.7842 13.2995 29.8936 13.1901C30.4649 12.6188 30.775 11.865 30.775 11.0566C30.775 10.2482 30.4589 9.49446 29.8936 8.92309C28.7204 7.74996 26.8058 7.74996 25.6265 8.92309C25.0552 9.49446 24.7452 10.2482 24.7452 11.0566C24.7452 11.865 25.0613 12.6188 25.6265 13.1901C26.1858 13.7493 26.9091 14.035 27.6446 14.0593L29.304 21.1042L39.4549 31.2551C38.1359 32.1851 36.8837 33.2063 35.7167 34.3126L26.824 25.4199C27.3589 24.3014 27.1765 22.9156 26.2465 21.9917C25.6752 21.4203 24.9214 21.1103 24.113 21.1103C23.3046 21.1103 22.5509 21.4264 21.9795 21.9917C20.8064 23.1648 20.8064 25.0795 21.9795 26.2587C22.5509 26.8301 23.3046 27.1401 24.113 27.1401C24.575 27.1401 25.0187 27.0367 25.4199 26.8422L34.3065 35.7288C33.2002 36.902 32.1791 38.148 31.2491 39.4671L21.0981 29.3161L14.0654 27.6567C14.035 26.8908 13.7311 26.1797 13.1901 25.6387C12.6188 25.0673 11.865 24.7573 11.0566 24.7573C10.2482 24.7573 9.49446 25.0734 8.92309 25.6387C8.35172 26.2101 8.04172 26.9638 8.04172 27.7722C8.04172 28.5806 8.3578 29.3344 8.92309 29.9057C9.49446 30.4771 10.2482 30.7871 11.0566 30.7871C11.865 30.7871 12.6188 30.471 13.1901 29.9057C13.2935 29.8024 13.3907 29.6869 13.4758 29.5714L20.0952 31.1275L30.1246 41.1569C28.222 44.2204 26.7997 47.606 25.9548 51.2105H11.7739L5.9933 47.6303C6.01762 47.4845 6.02977 47.3386 6.02977 47.1866C6.02977 45.5211 4.67429 44.1717 3.01488 44.1717C1.35548 44.1717 0 45.5272 0 47.1866C0 48.846 1.35548 50.2015 3.01488 50.2015C3.80507 50.2015 4.52233 49.8915 5.06331 49.3931L11.2146 53.1982H25.5536C25.2801 54.7664 25.122 56.3711 25.0734 58.0062H12.5215C12.1082 56.8331 10.9897 55.9882 9.67681 55.9882C8.01133 55.9882 6.66192 57.3436 6.66192 59.003C6.66192 60.6624 8.01741 62.0179 9.67681 62.0179C10.9897 62.0179 12.1082 61.173 12.5215 59.9999H25.0734C25.122 61.635 25.2801 63.2397 25.5536 64.8079H11.2146L5.06331 68.613C4.52233 68.1146 3.80507 67.8046 3.01488 67.8046C1.3494 67.8046 0 69.16 0 70.8194C0 72.4789 1.35548 73.8343 3.01488 73.8343C4.67429 73.8343 6.02977 72.4789 6.02977 70.8194C6.02977 70.6675 6.01762 70.5216 5.9933 70.3757L11.7739 66.7955H25.9548C26.8058 70.4 28.2281 73.7857 30.1246 76.8492L20.0952 86.8786L13.4758 88.4346C13.3907 88.3192 13.2935 88.2037 13.1901 88.1003C12.6188 87.529 11.865 87.219 11.0566 87.219C10.2482 87.219 9.49446 87.535 8.92309 88.1003C8.35172 88.6717 8.04172 89.4254 8.04172 90.2339C8.04172 91.0423 8.3578 91.796 8.92309 92.3674C9.51269 92.957 10.2847 93.2488 11.0566 93.2488C11.8286 93.2488 12.6005 92.957 13.1901 92.3674C13.7311 91.8264 14.0411 91.1092 14.0654 90.3494L21.0981 88.69L31.2491 78.539C32.1791 79.858 33.2002 81.1102 34.3065 82.2773L25.4199 91.1639C25.0187 90.9694 24.575 90.866 24.113 90.866C23.3046 90.866 22.5509 91.1821 21.9795 91.7474C21.4081 92.3187 21.0981 93.0725 21.0981 93.8809C21.0981 94.6893 21.4142 95.4431 21.9795 96.0144C22.5691 96.604 23.3411 96.8958 24.113 96.8958C24.885 96.8958 25.6569 96.604 26.2465 96.0144C26.8179 95.4431 27.1279 94.6893 27.1279 93.8809C27.1279 93.4189 27.0246 92.9752 26.8301 92.574L35.7167 83.6874C36.8898 84.7937 38.1359 85.8149 39.4549 86.7449L29.304 96.8958L27.6446 103.941C26.9091 103.971 26.1858 104.251 25.6265 104.81C25.0552 105.381 24.7452 106.135 24.7452 106.943C24.7452 107.752 25.0613 108.506 25.6265 109.077C26.1979 109.648 26.9516 109.958 27.7601 109.958C28.5685 109.958 29.3222 109.642 29.8936 109.077C30.4649 108.506 30.775 107.752 30.775 106.943C30.775 106.135 30.4589 105.381 29.8936 104.81C29.7902 104.707 29.6687 104.621 29.5532 104.53L31.1153 97.9048L41.1447 87.8754C44.2082 89.778 47.5939 91.2003 51.1984 92.0452V106.226L47.6182 112.007C47.4723 111.982 47.3264 111.97 47.1745 111.97C45.509 111.97 44.1596 113.326 44.1596 114.985C44.1596 116.645 45.5151 118 47.1745 118C48.8339 118 50.1894 116.645 50.1894 114.985C50.1894 114.195 49.8794 113.478 49.3809 112.937L53.186 106.791V92.4525C54.7542 92.726 56.3589 92.884 57.994 92.9327V105.485C56.8209 105.898 55.976 107.016 55.976 108.329C55.976 109.995 57.3315 111.344 58.9909 111.344C60.6503 111.344 62.0058 109.989 62.0058 108.329C62.0058 107.016 61.1609 105.898 59.9877 105.485V92.9327C61.6228 92.884 63.2275 92.7199 64.7958 92.4525V106.791L68.6008 112.937C68.1024 113.478 67.7924 114.195 67.7924 114.985C67.7924 116.651 69.1479 118 70.8073 118C72.4667 118 73.8222 116.645 73.8222 114.985C73.8222 113.326 72.4667 111.97 70.8073 111.97C70.6553 111.97 70.5095 111.982 70.3636 112.007L66.7834 106.226V92.0452C70.3879 91.1942 73.7736 89.7719 76.8371 87.8754L86.8664 97.9048L88.4286 104.53C88.3131 104.615 88.1976 104.7 88.0882 104.81C87.5168 105.381 87.2068 106.135 87.2068 106.943C87.2068 107.752 87.5229 108.506 88.0882 109.077C88.6778 109.667 89.4498 109.958 90.2217 109.958C90.9937 109.958 91.7656 109.667 92.3552 109.077C92.9266 108.506 93.2366 107.752 93.2366 106.943C93.2366 106.135 92.9205 105.381 92.3552 104.81C91.796 104.251 91.0727 103.965 90.3372 103.941L88.6778 96.8958L78.5269 86.7449C79.8459 85.8149 81.098 84.7937 82.2651 83.6874L91.1517 92.574C90.9572 92.9752 90.8539 93.4189 90.8539 93.8809C90.8539 94.6893 91.17 95.4431 91.7352 96.0144C92.3066 96.5858 93.0603 96.8958 93.8688 96.8958C94.6772 96.8958 95.4309 96.5797 96.0023 96.0144C96.5736 95.4431 96.8836 94.6893 96.8836 93.8809C96.8836 93.0725 96.5676 92.3187 96.0023 91.7474C95.0723 90.8174 93.6925 90.635 92.5741 91.1699L83.6814 82.2773C84.7876 81.1041 85.8088 79.858 86.7388 78.539L96.8897 88.69L103.922 90.3494C103.953 91.1152 104.257 91.8264 104.798 92.3674C105.369 92.9388 106.123 93.2488 106.931 93.2488C107.74 93.2488 108.493 92.9327 109.065 92.3674C109.636 91.796 109.946 91.0423 109.946 90.2339C109.946 89.4254 109.63 88.6717 109.065 88.1003C107.892 86.9272 105.977 86.9272 104.798 88.1003C104.694 88.2037 104.597 88.3192 104.512 88.4346L97.8927 86.8786L87.8633 76.8492C89.7658 73.7857 91.1821 70.4 92.0331 66.7955H106.214L111.995 70.3757C111.97 70.5216 111.958 70.6675 111.958 70.8194C111.958 72.4849 113.314 73.8343 114.973 73.8343C116.632 73.8343 117.988 72.4789 117.988 70.8194C117.988 69.16 116.632 67.8046 114.973 67.8046L114.967 67.7985ZM108.311 57.9758C108.876 57.9758 109.332 58.4378 109.332 58.997C109.332 59.5562 108.87 60.0181 108.311 60.0181C107.752 60.0181 107.29 59.5562 107.29 58.997C107.29 58.4378 107.752 57.9758 108.311 57.9758ZM114.967 46.1655C115.532 46.1655 115.988 46.6274 115.988 47.1866C115.988 47.7458 115.526 48.2078 114.967 48.2078C114.408 48.2078 113.946 47.7458 113.946 47.1866C113.946 46.6274 114.408 46.1655 114.967 46.1655ZM106.202 27.0428C106.402 26.8422 106.664 26.745 106.925 26.745C107.187 26.745 107.448 26.8422 107.648 27.0428C107.843 27.2373 107.946 27.4926 107.946 27.7661C107.946 28.0397 107.837 28.295 107.648 28.4895C107.259 28.8785 106.591 28.8785 106.202 28.4895C106.007 28.295 105.904 28.0397 105.904 27.7661C105.904 27.4926 106.013 27.2373 106.202 27.0428ZM93.1394 23.3958C93.3399 23.1952 93.6013 23.0979 93.8627 23.0979C94.1241 23.0979 94.3854 23.1952 94.586 23.3958C94.7805 23.5903 94.8839 23.8456 94.8839 24.1191C94.8839 24.3926 94.7744 24.6479 94.586 24.8424C94.197 25.2314 93.5284 25.2314 93.1394 24.8424C92.9448 24.6479 92.8415 24.3926 92.8415 24.1191C92.8415 23.8456 92.9509 23.5903 93.1394 23.3958ZM89.4923 10.3333C89.6868 10.1388 89.9421 10.0354 90.2156 10.0354C90.4892 10.0354 90.7445 10.1449 90.939 10.3333C91.1335 10.5278 91.2368 10.7831 91.2368 11.0566C91.2368 11.3301 91.1274 11.5854 90.939 11.7799C90.5378 12.1811 89.8874 12.1811 89.4923 11.7799C89.2978 11.5854 89.1945 11.3301 89.1945 11.0566C89.1945 10.7831 89.3039 10.5278 89.4923 10.3333ZM70.7951 1.98763C71.3604 1.98763 71.8163 2.44958 71.8163 3.0088C71.8163 3.56801 71.3544 4.02996 70.7951 4.02996C70.2359 4.02996 69.774 3.56801 69.774 3.0088C69.774 2.44958 70.2359 1.98763 70.7951 1.98763ZM47.1623 4.03605C46.597 4.03605 46.1412 3.5741 46.1412 3.01488C46.1412 2.45567 46.6031 1.99372 47.1623 1.99372C47.7215 1.99372 48.1835 2.45567 48.1835 3.01488C48.1835 3.5741 47.7215 4.03605 47.1623 4.03605ZM28.4652 11.7799C28.064 12.1811 27.4136 12.175 27.0185 11.7799C26.824 11.5854 26.7206 11.3301 26.7206 11.0566C26.7206 10.7831 26.8301 10.5278 27.0185 10.3333C27.4197 9.93211 28.0701 9.93211 28.4652 10.3333C28.6597 10.5278 28.763 10.7831 28.763 11.0566C28.763 11.3301 28.6536 11.5854 28.4652 11.7799ZM24.8181 24.8424C24.4291 25.2314 23.7605 25.2314 23.3715 24.8424C22.9703 24.4413 22.9703 23.7969 23.3715 23.3958C23.7605 23.0067 24.4352 23.0067 24.8181 23.3958C25.2193 23.7969 25.2193 24.4413 24.8181 24.8424ZM11.7617 28.4895C11.3727 28.8785 10.7041 28.8785 10.315 28.4895C10.1205 28.295 10.0172 28.0397 10.0172 27.7661C10.0172 27.4926 10.1266 27.2373 10.315 27.0428C10.5096 26.8483 10.7649 26.745 11.0384 26.745C11.3119 26.745 11.5672 26.8544 11.7617 27.0428C11.9562 27.2373 12.0595 27.4926 12.0595 27.7661C12.0595 28.0397 11.9501 28.295 11.7617 28.4895ZM2.99057 48.2078C2.42528 48.2078 1.96941 47.7458 1.96941 47.1866C1.96941 46.6274 2.43136 46.1655 2.99057 46.1655C3.54979 46.1655 4.01175 46.6274 4.01175 47.1866C4.01175 47.7458 3.54979 48.2078 2.99057 48.2078ZM9.64642 60.0242C9.08113 60.0242 8.62525 59.5622 8.62525 59.003C8.62525 58.4438 9.08721 57.9819 9.64642 57.9819C10.2056 57.9819 10.6676 58.4438 10.6676 59.003C10.6676 59.5622 10.2056 60.0242 9.64642 60.0242ZM2.99057 71.8406C2.42528 71.8406 1.96941 71.3787 1.96941 70.8194C1.96941 70.2602 2.43136 69.7983 2.99057 69.7983C3.54979 69.7983 4.01175 70.2602 4.01175 70.8194C4.01175 71.3787 3.54979 71.8406 2.99057 71.8406ZM11.7617 90.9633C11.3605 91.3645 10.7162 91.3645 10.315 90.9633C10.1205 90.7688 10.0172 90.5135 10.0172 90.2399C10.0172 89.9664 10.1266 89.7111 10.315 89.5166C10.7041 89.1276 11.3727 89.1276 11.7617 89.5166C11.9562 89.7111 12.0595 89.9664 12.0595 90.2399C12.0595 90.5135 11.9501 90.7688 11.7617 90.9633ZM24.8181 94.6103C24.4169 95.0115 23.7665 95.0115 23.3715 94.6103C23.1769 94.4158 23.0736 94.1605 23.0736 93.887C23.0736 93.6135 23.183 93.3582 23.3715 93.1637C23.7605 92.7746 24.4291 92.7746 24.8181 93.1637C25.0126 93.3582 25.116 93.6135 25.116 93.887C25.116 94.1605 25.0065 94.4158 24.8181 94.6103ZM28.4652 107.667C28.0761 108.056 27.4075 108.056 27.0185 107.667C26.824 107.472 26.7206 107.217 26.7206 106.943C26.7206 106.67 26.8301 106.415 27.0185 106.22C27.2191 106.019 27.4805 105.922 27.7418 105.922C28.0032 105.922 28.2646 106.019 28.4652 106.22C28.6657 106.421 28.763 106.67 28.763 106.943C28.763 107.217 28.6536 107.472 28.4652 107.667ZM47.1623 116.012C46.597 116.012 46.1412 115.55 46.1412 114.991C46.1412 114.432 46.6031 113.97 47.1623 113.97C47.7215 113.97 48.1835 114.432 48.1835 114.991C48.1835 115.55 47.7215 116.012 47.1623 116.012ZM70.7951 113.964C71.3604 113.964 71.8163 114.426 71.8163 114.985C71.8163 115.544 71.3544 116.006 70.7951 116.006C70.2359 116.006 69.774 115.544 69.774 114.985C69.774 114.426 70.2359 113.964 70.7951 113.964ZM89.4923 106.22C89.6929 106.019 89.9543 105.922 90.2156 105.922C90.477 105.922 90.7384 106.019 90.939 106.22C91.1335 106.415 91.2368 106.67 91.2368 106.943C91.2368 107.217 91.1274 107.472 90.939 107.667C90.5378 108.068 89.8874 108.068 89.4923 107.667C89.2978 107.472 89.1945 107.217 89.1945 106.943C89.1945 106.67 89.3039 106.415 89.4923 106.22ZM93.1394 93.1576C93.3399 92.957 93.6013 92.8597 93.8627 92.8597C94.1241 92.8597 94.3854 92.957 94.586 93.1576C94.7866 93.3582 94.8839 93.6074 94.8839 93.8809C94.8839 94.1544 94.7744 94.4097 94.586 94.6042C94.197 94.9933 93.5284 94.9933 93.1394 94.6042C92.9448 94.4097 92.8415 94.1544 92.8415 93.8809C92.8415 93.6074 92.9509 93.3521 93.1394 93.1576ZM106.202 89.5105C106.402 89.3099 106.664 89.2127 106.925 89.2127C107.187 89.2127 107.448 89.3099 107.648 89.5105C107.843 89.705 107.946 89.9603 107.946 90.2339C107.946 90.5074 107.837 90.7627 107.648 90.9572C107.259 91.3462 106.591 91.3462 106.202 90.9572C106.007 90.7627 105.904 90.5074 105.904 90.2339C105.904 89.9603 106.013 89.705 106.202 89.5105ZM57.9576 9.67072C57.9576 9.10543 58.4195 8.64955 58.9787 8.64955C59.5379 8.64955 59.9999 9.11151 59.9999 9.67072C59.9999 10.2299 59.5379 10.6919 58.9787 10.6919C58.4195 10.6919 57.9576 10.2299 57.9576 9.67072ZM60.006 108.335C60.006 108.901 59.544 109.357 58.9848 109.357C58.4256 109.357 57.9636 108.895 57.9636 108.335C57.9636 107.776 58.4256 107.314 58.9848 107.314C59.544 107.314 60.006 107.776 60.006 108.335ZM58.9787 91.2733C41.1872 91.2733 26.7085 76.7945 26.7085 59.003C26.7085 41.2115 41.1872 26.7328 58.9787 26.7328C76.7702 26.7328 91.249 41.2115 91.249 59.003C91.249 76.7945 76.7702 91.2733 58.9787 91.2733ZM114.967 71.8406C114.402 71.8406 113.946 71.3787 113.946 70.8194C113.946 70.2602 114.408 69.7983 114.967 69.7983C115.526 69.7983 115.988 70.2602 115.988 70.8194C115.988 71.3787 115.526 71.8406 114.967 71.8406Z" fill="url(#paint3_radial_1_211)"></path>
  <defs>
    <linearGradient id="paint0_linear_1_211" x1="37.6129" y1="80.3686" x2="80.3502" y2="37.6314" gradientUnits="userSpaceOnUse">
      <stop offset="0.03" stop-color="#00162F"></stop>
      <stop offset="0.5" stop-color="#5076F6"></stop>
      <stop offset="1" stop-color="#77F1A1"></stop>
    </linearGradient>
    <linearGradient id="paint1_linear_1_211" x1="384.015" y1="57.289" x2="384.015" y2="17.8644" gradientUnits="userSpaceOnUse">
      <stop stop-color="#5076F6"></stop>
      <stop offset="0.89" stop-color="#77F1A1"></stop>
    </linearGradient>
    <linearGradient id="paint2_linear_1_211" x1="126.534" y1="93.0178" x2="403.959" y2="93.0178" gradientUnits="userSpaceOnUse">
      <stop offset="0.11" stop-color="#77F1A1"></stop>
      <stop offset="1" stop-color="#5076F6"></stop>
    </linearGradient>
    <radialGradient id="paint3_radial_1_211" cx="0" cy="0" r="1" gradientUnits="userSpaceOnUse" gradientTransform="translate(58.9787 59.003) scale(59.003 59.003)">
      <stop offset="0.39" stop-color="#5076F6"></stop>
      <stop offset="0.54" stop-color="#5A97DE"></stop>
      <stop offset="0.85" stop-color="#6ED7B2"></stop>
      <stop offset="1" stop-color="#77F1A1"></stop>
    </radialGradient>
  </defs>
</svg>
